<?xml version="1.0" encoding="utf-8"?><!DOCTYPE svg PUBLIC "-//W3C//DTD SVG 1.1//EN" "http://www.w3.org/Graphics/SVG/1.1/DTD/svg11.dtd"><svg version="1.1" id="Contours" xmlns="http://www.w3.org/2000/svg" xmlns:xlink="http://www.w3.org/1999/xlink" x="0px" y="0px" width="319.563080px" height="319.563080px" viewBox="-0.000003 -0.000000 319.563080 1139.851440" enable-background="new 0 0 319.563080 319.563080" xml:space="preserve" stroke="black" fill="none" stroke-linecap='round' stroke-linejoin='round'><path class="selected"  fill="#000000" opacity="1.000000" stroke="none" 
 	d="
M167.991395 493.555227 C182.794279 482.041926 192.582030 464.294532 194.421348 445.631778 C195.068486 439.065560 198.866407 429.636845 204.761064 432.601136 C205.435617 459.440338 206.110170 486.279540 206.784723 513.118742 C219.396282 506.739570 221.592039 490.167323 224.652884 476.369624 C227.440246 463.804733 233.244923 450.544159 244.930755 445.150903 C256.616587 439.757647 274.007067 448.218709 272.377478 460.985475 C273.458635 447.480174 274.539791 433.974872 275.620947 420.469571 C275.918662 416.750652 276.425100 412.611141 279.299779 410.233073 C282.174458 407.855005 287.935406 409.598999 287.424402 413.294653 C284.609522 433.652259 284.778885 454.420028 287.925406 474.729018 C306.962458 451.154107 292.224383 410.464111 314.262524 389.667329 C322.639129 417.091535 321.036151 447.447805 309.817888 473.837294 C307.333951 479.680428 304.349622 485.516116 303.970693 491.853984 C291.738376 696.448807 282.531805 901.224530 276.355004 1106.091605 C276.015425 1117.354502 275.684603 1128.624751 274.721009 1139.851489 C269.731468 1135.461235 268.992424 1128.082609 268.652180 1121.445284 C264.272895 1036.016081 268.825312 950.409288 273.377077 864.989102 C279.630305 747.638593 285.883532 630.288085 292.136760 512.937576 C292.554483 505.098418 292.921780 496.948103 289.893757 489.705316 C286.865735 482.462528 279.373313 476.442316 271.640043 477.792661 C272.232552 492.092409 263.482429 506.340037 250.460637 512.278603 C243.406338 510.481234 236.979720 506.307860 232.468349 500.594613 C227.111244 509.800291 217.683844 516.535230 207.238646 518.618723 C197.017024 511.461569 191.723351 497.913258 194.385139 485.722226 C168.997963 499.778515 171.999000 538.122268 153.911207 560.814111 C141.993209 557.661542 139.480074 542.118048 139.318895 529.791192 C139.032148 507.861078 139.832837 483.205947 155.746986 468.114493 C157.330326 466.613005 159.385395 465.150755 161.511744 465.640729 C164.409751 466.308517 165.303865 469.927025 165.639963 472.881924 C166.423773 479.773025 167.207584 486.664126 167.991395 493.555227 M242.898621 496.395319 C245.606603 498.633267 247.388211 501.959630 247.750453 505.453962 C251.144815 505.871642 249.458829 498.270311 252.818017 497.628419 C255.638976 497.089375 258.216408 495.375299 259.804393 492.982253 C258.220259 488.909322 255.022860 485.489447 251.065525 483.635331 C249.024770 482.679184 246.759094 482.101502 245.015993 480.673044 C243.272891 479.244586 242.263473 476.519903 243.620891 474.720927 C242.908103 474.376269 242.195315 474.031610 241.482527 473.686951 C235.653475 479.874304 236.346031 490.980084 242.898621 496.395319 M247.087725 453.188778 C243.267875 460.438796 246.905590 470.596559 254.459517 473.773380 C257.689215 475.131636 260.591237 470.786294 260.336094 467.291912 C259.928076 461.703898 255.827773 457.175065 251.912880 453.166829 C250.974949 452.206532 249.671593 451.165560 248.437568 451.693822 C247.807733 451.963442 247.407082 452.582644 247.087725 453.188778 M150.749658 510.458350 C149.711576 518.140959 149.381334 525.919064 149.764481 533.662015 C149.895708 536.313966 150.347427 539.369266 152.619769 540.742774 C156.511454 533.062379 157.675832 524.033984 155.860136 515.617517 C155.285471 512.953715 153.374358 509.725513 150.749661 510.458346 z"/><path class="selected"  fill="#000000" opacity="1.000000" stroke="none" 
 	d="
M48.504708 513.709211 C100.567854 354.776327 121.101401 185.583457 108.566454 18.810833 C107.920264 10.213519 111.799309 -2.362089 119.971687 0.384476 C134.040777 180.681790 110.941459 363.797366 52.538017 534.952543 C50.989939 539.489288 56.166175 544.047741 60.950395 543.748023 C65.734616 543.448304 69.701339 540.058461 73.101762 536.679744 C93.706901 516.206131 107.994884 489.459947 113.556953 460.950229 C115.517063 450.903212 119.079193 437.996002 129.294924 437.345307 C104.760735 601.589839 89.363759 767.198823 83.198931 933.151187 C82.819963 943.352713 82.475507 953.561185 81.584367 963.730777 C67.471752 932.471936 70.261857 896.536438 73.329482 862.376948 C83.734761 746.509152 94.140040 630.641356 104.545320 514.773559 C96.339857 533.202476 79.448964 547.535440 59.930302 552.632150 C53.791747 554.235049 46.435844 555.729357 43.950552 561.566690 C35.658600 581.042533 26.264493 600.049061 15.828168 618.465029 C13.065390 623.340236 7.691009 628.928336 2.896834 626.027220 C-1.173569 623.564085 -0.202678 617.486411 1.287728 612.968236 C14.059743 574.249795 26.831756 535.531356 39.603769 496.812916 C42.570749 502.445014 45.537728 508.077113 48.504708 513.709211 M32.668077 547.936483 C29.854567 551.490380 29.125706 556.581491 30.829062 560.782039 C31.559713 562.583852 32.704335 564.216363 34.149328 565.517277 C35.798523 559.736487 35.261265 553.359835 32.668078 547.936483 M23.441937 571.583083 C21.705279 575.012866 22.083909 579.411224 24.381174 582.493751 C25.375406 583.827836 26.820632 584.967841 28.482965 585.038061 C28.432285 580.150774 26.615090 575.300508 23.441939 571.583082 M39.157027 539.576659 C37.371791 540.881590 38.104266 544.266936 40.269261 544.717170 C42.373320 542.542033 42.421705 538.707366 40.373201 536.479828 C39.533346 537.080376 38.951039 538.029381 38.796048 539.050161 z"/></svg>